<?xml version="1.0" standalone="no"?>
<svg xmlns="http://www.w3.org/2000/svg" version="1.1">
<path stroke="black" stroke-width="1" fill="none" fill-rule="nonzero" transform="matrix(1 0 0 -1 0 288.134)" d="M 1.3333 28.4802 L 284.798 28.4802 M 284.798 28.4804 L 284.798 1.8348 M 284.798 1.8346 L 1.3333 1.8346 M 1.3333 1.8348 L 1.3333 28.4804 M 13.2388 28.4804 L 13.2388 1.8348 M 272.892 28.4804 L 272.892 1.8348 M 272.892 28.4804 L 272.892 288.134 M 272.892 288.134 L 247.442 286.883 L 222.236 283.145 L 197.519 276.953 L 173.527 268.369 L 150.492 257.474 L 128.637 244.374 L 108.17 229.195 L 89.2896 212.083 L 72.1773 193.203 L 56.9982 172.736 L 43.8982 150.88 L 33.0037 127.845 L 24.4193 103.854 L 18.2279 79.1362 L 14.4891 53.9308 M 14.4583 54.029 L 13.2388 28.4804 " />
</svg>
