<?xml version="1.0" standalone="no"?>
<svg xmlns="http://www.w3.org/2000/svg" version="1.1">
<path stroke="black" stroke-width="1" fill="none" fill-rule="nonzero" transform="matrix(1 0 0 -1 0 128.91)" d="M 1.32178 128.91 C 1.32178 128.91 1262.74 128.91 1262.74 128.91 M 1262.74 128.91 C 1262.74 128.91 1262.74 1.34863 1262.74 1.34863 M 1262.74 1.34863 C 1262.74 1.34863 1.32178 1.34863 1.32178 1.34863 M 1.32178 1.34863 C 1.32178 1.34863 1.32178 128.91 1.32178 128.91 M 107.622 128.91 C 107.622 128.91 107.622 1.34863 107.622 1.34863 M 1156.44 128.91 C 1156.44 128.91 1156.44 1.34863 1156.44 1.34863 M 680.317 128.869 C 680.317 128.869 680.317 1.30859 680.317 1.30859 M 580.932 128.758 C 580.932 128.758 580.932 1.19727 580.932 1.19727 M 107.622 65.1294 C 107.622 65.1294 580.932 64.9751 580.932 64.9751 M 680.436 64.956 C 680.436 64.956 1156.44 65.1294 1156.44 65.1294 " />
</svg>
